<svg xmlns="http://www.w3.org/2000/svg" viewBox="0 0 256 256" style="enable-background:new 0 0 256 256" xml:space="preserve"><style>.st2{fill:none;stroke:#6b1d1d;stroke-width:.5;stroke-miterlimit:10}.st3{fill:#3a312a}.st4{fill:#87796f}.st8{fill:#f16c7a}.st9{fill:#8ac6dd}.st14{fill:#d7e057}.st16{fill:#6ca8bf}</style><g id="Layer_1"><path class="st14" d="M47.967 26.073s3.408 12.659 13.222 13.246c0 0-13.1 4.525-13.321 14.202 0 0-2.579-13.572-12.925-14.059 0 .001 12.05-1.825 13.024-13.389z"/><path class="st3" d="M47.867 55.021a1.5 1.5 0 0 1-1.472-1.217c-.024-.124-2.495-12.418-11.523-12.843a1.5 1.5 0 0 1-.155-2.982c.441-.069 10.895-1.817 11.755-12.032a1.5 1.5 0 0 1 2.942-.266c.032.116 3.259 11.626 11.863 12.14a1.5 1.5 0 0 1 .402 2.915c-.121.042-12.118 4.311-12.313 12.819a1.498 1.498 0 0 1-1.499 1.466zm-7.742-15.729c3.878 1.969 6.23 5.746 7.587 8.877 2.026-4.021 5.942-6.787 8.949-8.427-4.135-1.842-6.783-5.651-8.334-8.722-1.792 4.359-5.27 6.867-8.202 8.272z"/><path class="st14" d="M26.268 43.054s2.411 8.954 9.352 9.369c0 0-9.266 3.201-9.422 10.045 0 0-1.824-9.6-9.142-9.944 0 .001 8.524-1.291 9.212-9.47z"/><path class="st3" d="M26.197 63.969a1.5 1.5 0 0 1-1.472-1.22c-.016-.082-1.704-8.442-7.739-8.726a1.5 1.5 0 0 1-.154-2.982c.296-.047 7.364-1.243 7.942-8.113a1.5 1.5 0 0 1 2.942-.267c.022.079 2.228 7.92 7.993 8.264a1.499 1.499 0 0 1 .4 2.915c-.081.028-8.282 2.953-8.412 8.662a1.501 1.501 0 0 1-1.5 1.467zm-4.519-11.528c2.107 1.333 3.523 3.394 4.447 5.28 1.376-2.232 3.515-3.872 5.364-4.973-2.287-1.269-3.884-3.35-4.941-5.224-1.173 2.288-3.014 3.876-4.87 4.917z"/><path class="st14" d="M26.268 16.396s2.411 8.954 9.352 9.37c0 0-9.266 3.201-9.422 10.045 0 0-1.824-9.6-9.142-9.944 0 0 8.524-1.291 9.212-9.471z"/><path class="st3" d="M26.197 37.312a1.5 1.5 0 0 1-1.473-1.22c-.016-.082-1.704-8.442-7.739-8.726a1.5 1.5 0 0 1-.155-2.981c.296-.047 7.364-1.243 7.942-8.114a1.5 1.5 0 0 1 2.942-.266c.022.079 2.228 7.92 7.994 8.265a1.5 1.5 0 0 1 .4 2.915c-.081.028-8.282 2.952-8.412 8.662a1.501 1.501 0 0 1-1.499 1.465zm-4.519-11.528c2.107 1.332 3.523 3.394 4.447 5.28 1.376-2.232 3.515-3.872 5.365-4.972-2.287-1.269-3.884-3.35-4.941-5.224-1.174 2.286-3.015 3.875-4.871 4.916z"/><path class="st9" d="M136.107 239.604h74.917c9.833 0 17.805-7.971 17.805-17.805V49.658c0-9.833-7.971-17.805-17.805-17.805H89.128c-9.833 0-17.805 7.971-17.805 17.805v172.141c0 9.833 7.971 17.805 17.805 17.805h46.979z"/><path class="st3" d="M211.023 241.104h-74.917a1.5 1.5 0 1 1 0-3h74.917c8.99 0 16.305-7.314 16.305-16.305V49.658c0-8.99-7.314-16.305-16.305-16.305H89.128c-8.99 0-16.305 7.314-16.305 16.305v172.141c0 8.99 7.315 16.305 16.305 16.305h34.211a1.5 1.5 0 1 1 0 3H89.128c-10.645 0-19.305-8.66-19.305-19.305V49.658c0-10.645 8.66-19.305 19.305-19.305h121.895c10.645 0 19.305 8.66 19.305 19.305v172.141c0 10.644-8.661 19.305-19.305 19.305z"/><path class="st14" d="M152.336 76.354h-35.84c-5.299 0-9.594 4.296-9.594 9.594v22.639a9.594 9.594 0 0 0 9.594 9.594h67.159c5.299 0 9.594-4.296 9.594-9.594V85.949c0-5.299-4.296-9.594-9.594-9.594H152.336z"/><path class="st3" d="M183.655 119.682h-67.159c-6.117 0-11.094-4.977-11.094-11.094V85.949c0-6.117 4.977-11.094 11.094-11.094h35.84a1.5 1.5 0 1 1 0 3h-35.84c-4.463 0-8.094 3.631-8.094 8.094v22.639c0 4.463 3.631 8.094 8.094 8.094h67.159c4.463 0 8.094-3.631 8.094-8.094V85.949c0-4.463-3.631-8.094-8.094-8.094H165.11a1.5 1.5 0 1 1 0-3h18.545c6.117 0 11.094 4.977 11.094 11.094v22.639c0 6.117-4.977 11.094-11.094 11.094z"/><path class="st4" d="M81.574 216.434H60.292a5.5 5.5 0 0 1-5.5-5.5v-.455a5.5 5.5 0 0 1 5.5-5.5h21.282a5.5 5.5 0 0 1 5.5 5.5v.455a5.5 5.5 0 0 1-5.5 5.5z"/><path class="st3" d="M81.574 217.934H60.292c-3.86 0-7-3.14-7-7v-.455c0-3.86 3.14-7 7-7h21.282c3.86 0 7 3.14 7 7v.455c0 3.86-3.14 7-7 7zm-21.282-11.455c-2.206 0-4 1.794-4 4v.455c0 2.206 1.794 4 4 4h21.282c2.206 0 4-1.794 4-4v-.455c0-2.206-1.794-4-4-4H60.292z"/><path class="st4" d="M81.574 191.441H60.292a5.5 5.5 0 0 1-5.5-5.5v-.455a5.5 5.5 0 0 1 5.5-5.5h21.282a5.5 5.5 0 0 1 5.5 5.5v.455a5.5 5.5 0 0 1-5.5 5.5z"/><path class="st3" d="M81.574 192.941H60.292c-3.86 0-7-3.14-7-7v-.455c0-3.86 3.14-7 7-7h21.282c3.86 0 7 3.14 7 7v.455c0 3.86-3.14 7-7 7zm-21.282-11.455c-2.206 0-4 1.795-4 4v.455c0 2.206 1.794 4 4 4h21.282c2.206 0 4-1.794 4-4v-.455c0-2.205-1.794-4-4-4H60.292z"/><path class="st4" d="M81.574 166.449H60.292a5.5 5.5 0 0 1-5.5-5.5v-.455a5.5 5.5 0 0 1 5.5-5.5h21.282a5.5 5.5 0 0 1 5.5 5.5v.455a5.5 5.5 0 0 1-5.5 5.5z"/><path class="st3" d="M81.574 167.949H60.292c-3.86 0-7-3.14-7-7v-.455c0-3.86 3.14-7 7-7h21.282c3.86 0 7 3.14 7 7v.455c0 3.86-3.14 7-7 7zm-21.282-11.455c-2.206 0-4 1.794-4 4v.455c0 2.206 1.794 4 4 4h21.282c2.206 0 4-1.794 4-4v-.455c0-2.206-1.794-4-4-4H60.292z"/><path class="st4" d="M81.574 141.456H60.292a5.5 5.5 0 0 1-5.5-5.5v-.455a5.5 5.5 0 0 1 5.5-5.5h21.282a5.5 5.5 0 0 1 5.5 5.5v.455a5.5 5.5 0 0 1-5.5 5.5z"/><path class="st3" d="M81.574 142.956H60.292c-3.86 0-7-3.14-7-7v-.455c0-3.86 3.14-7 7-7h21.282c3.86 0 7 3.14 7 7v.455c0 3.86-3.14 7-7 7zm-21.282-11.455c-2.206 0-4 1.794-4 4v.455c0 2.206 1.794 4 4 4h21.282c2.206 0 4-1.794 4-4v-.455c0-2.206-1.794-4-4-4H60.292z"/><path class="st4" d="M81.574 116.464H60.292a5.5 5.5 0 0 1-5.5-5.5v-.455a5.5 5.5 0 0 1 5.5-5.5h21.282a5.5 5.5 0 0 1 5.5 5.5v.455a5.5 5.5 0 0 1-5.5 5.5z"/><path class="st3" d="M81.574 117.963H60.292c-3.86 0-7-3.14-7-7v-.455c0-3.86 3.14-7 7-7h21.282c3.86 0 7 3.14 7 7v.455c0 3.86-3.14 7-7 7zm-21.282-11.454c-2.206 0-4 1.794-4 4v.455c0 2.205 1.794 4 4 4h21.282c2.206 0 4-1.795 4-4v-.455c0-2.206-1.794-4-4-4H60.292z"/><path class="st4" d="M81.574 91.471H60.292a5.5 5.5 0 0 1-5.5-5.5v-.455a5.5 5.5 0 0 1 5.5-5.5h21.282a5.5 5.5 0 0 1 5.5 5.5v.455a5.5 5.5 0 0 1-5.5 5.5z"/><path class="st3" d="M81.574 92.971H60.292c-3.86 0-7-3.14-7-7v-.455c0-3.86 3.14-7 7-7h21.282c3.86 0 7 3.14 7 7v.455c0 3.86-3.14 7-7 7zM60.292 81.516c-2.206 0-4 1.794-4 4v.455c0 2.206 1.794 4 4 4h21.282c2.206 0 4-1.794 4-4v-.455c0-2.206-1.794-4-4-4H60.292z"/><path class="st4" d="M81.574 66.479H60.292a5.5 5.5 0 0 1-5.5-5.5v-.455a5.5 5.5 0 0 1 5.5-5.5h21.282a5.5 5.5 0 0 1 5.5 5.5v.455a5.5 5.5 0 0 1-5.5 5.5z"/><path class="st3" d="M81.574 67.979H60.292c-3.86 0-7-3.14-7-7v-.455c0-3.86 3.14-7 7-7h21.282c3.86 0 7 3.14 7 7v.455c0 3.859-3.14 7-7 7zM60.292 56.524c-2.206 0-4 1.795-4 4v.455c0 2.206 1.794 4 4 4h21.282c2.206 0 4-1.794 4-4v-.455c0-2.205-1.794-4-4-4H60.292z"/><path class="st9" d="M201.34 121.67h31.472a6.132 6.132 0 0 1 6.132 6.132v16.893a6.132 6.132 0 0 1-6.132 6.132H201.34a6.132 6.132 0 0 1-6.132-6.132v-16.893a6.132 6.132 0 0 1 6.132-6.132z"/><path class="st3" d="M232.811 152.328H201.34c-4.209 0-7.633-3.424-7.633-7.632v-16.893c0-4.208 3.424-7.632 7.633-7.632h31.472c4.209 0 7.632 3.424 7.632 7.632v16.893c0 4.208-3.424 7.632-7.633 7.632zM201.34 123.17a4.638 4.638 0 0 0-4.633 4.632v16.893a4.638 4.638 0 0 0 4.633 4.632h31.472a4.637 4.637 0 0 0 4.632-4.632v-16.893a4.637 4.637 0 0 0-4.632-4.632H201.34z"/><path class="st14" d="M214.993 136.249a5.207 5.207 0 1 1-10.413 0 5.207 5.207 0 0 1 10.413 0z"/><path class="st3" d="M209.786 142.956a6.713 6.713 0 0 1-6.706-6.707 6.714 6.714 0 0 1 6.706-6.707 6.715 6.715 0 0 1 6.707 6.707 6.714 6.714 0 0 1-6.707 6.707zm0-10.414a3.71 3.71 0 0 0-3.706 3.707 3.711 3.711 0 0 0 3.706 3.707 3.711 3.711 0 0 0 3.707-3.707 3.712 3.712 0 0 0-3.707-3.707z"/><path class="st8" d="m234.699 36.523 3.235-6.4a9.377 9.377 0 0 0-16.738-8.46l-3.235 6.4 16.738 8.46z"/><path class="st3" d="M234.699 38.023c-.233 0-.465-.054-.677-.161l-16.738-8.46a1.5 1.5 0 0 1-.662-2.016l3.234-6.4c2.706-5.352 9.262-7.505 14.615-4.801a10.806 10.806 0 0 1 5.427 6.312 10.81 10.81 0 0 1-.626 8.302l-3.234 6.4a1.506 1.506 0 0 1-1.339.824zm-14.722-10.622 14.061 7.106 2.558-5.061a7.83 7.83 0 0 0 .454-6.012 7.822 7.822 0 0 0-3.931-4.571c-3.878-1.961-8.624-.4-10.583 3.476l-2.559 5.062z"/><path style="fill:#fae6ca" d="m234.699 36.523-76.382 149.9-16.738-8.46 76.382-149.9z"/><path class="st3" d="M158.315 187.923c-.228 0-.458-.052-.676-.162l-16.738-8.46a1.5 1.5 0 0 1-.66-2.02l76.383-149.9a1.502 1.502 0 0 1 2.013-.658l16.738 8.46a1.504 1.504 0 0 1 .66 2.02l-76.383 149.9c-.264.521-.791.82-1.337.82zm-14.717-10.62 14.061 7.106L232.68 37.183l-14.061-7.106-75.021 147.226z"/><path class="st8" d="m179.645 103.259-38.066 74.704 16.738 8.46 38.066-74.705z"/><path class="st3" d="M158.315 187.923c-.228 0-.458-.052-.676-.162l-16.738-8.46a1.5 1.5 0 0 1-.66-2.02l38.066-74.704a1.5 1.5 0 0 1 2.013-.658l16.738 8.46a1.5 1.5 0 0 1 .66 2.02l-38.066 74.705c-.264.52-.791.819-1.337.819zm-14.717-10.62 14.061 7.106 36.705-72.032-14.061-7.106-36.705 72.032z"/><path class="st14" d="m158.317 186.423-16.738-8.46L139 203.854z"/><path class="st3" d="M138.999 205.354a1.5 1.5 0 0 1-1.492-1.649l2.579-25.891a1.499 1.499 0 0 1 2.169-1.19l16.738 8.46a1.5 1.5 0 0 1 .328 2.453l-19.317 17.431a1.502 1.502 0 0 1-1.005.386zm3.856-25.065-1.978 19.851 14.811-13.364-12.833-6.487z"/><path class="st8" d="m132.902 69.854-13-11.968-13 11.968v-37.5h26z"/><path class="st3" d="M132.902 71.354c-.37 0-.734-.136-1.017-.396l-11.984-11.032-11.984 11.032a1.5 1.5 0 0 1-2.516-1.104v-37.5a1.5 1.5 0 0 1 1.5-1.5h26a1.5 1.5 0 0 1 1.5 1.5v37.5a1.501 1.501 0 0 1-1.499 1.5zm-13-14.968c.364 0 .729.132 1.016.396l10.484 9.651v-32.58h-23v32.58l10.484-9.651a1.498 1.498 0 0 1 1.016-.396z"/><path class="st16" d="M227.326 54.293v65.881h-15v-36.44zM212.326 152.324h15v69.48c0 8.99-7.31 16.3-16.3 16.3h-15c8.99 0 16.3-7.31 16.3-16.3v-69.48zM232.816 123.174h-15a4.64 4.64 0 0 1 4.63 4.63v16.89c0 2.56-2.08 4.63-4.63 4.63h15c2.55 0 4.63-2.07 4.63-4.63v-16.89a4.64 4.64 0 0 0-4.63-4.63zM202.186 33.354h8.84c.83 0 1.65.08 2.45.21l-3.37 6.62a17.89 17.89 0 0 0-7.92-6.83z"/></g></svg>